<?xml version="1.0" encoding="UTF-8"?>
<svg id="Layer_1" data-name="Layer 1" xmlns="http://www.w3.org/2000/svg" viewBox="0 0 201.1 181.26">
  <defs>
    <style>
      .cls-1 {
        fill: #6fa7da;
        stroke: #231f20;
        stroke-miterlimit: 10;
      }

      .cls-2 {
        fill: #183660;
        stroke-width: 0px;
      }
    </style>
  </defs>
  <polygon class="cls-1" points="200.55 131.12 17.09 180.63 17.09 180.63 .55 50.15 184.01 .63 184.01 .63 200.55 131.12 200.55 131.12"/>
  <path class="cls-2" d="M122.2,115.52l5.62-44.55c-.31-.17-.75-.48-1.14-.97-.55-.7-.72-1.43-.78-1.83-.1-.88-.15-2.04.03-3.41.19-1.42.57-2.6.92-3.48.64-1.06,2.33-3.55,5.41-4.79,0,0,1.59-.64,3.52-.71,6.28-.23,13.17,6.54,13.93,7.31.38-1.97.62-6.03-2.09-10.24-2.23-3.46-5.18-5.16-6.59-5.81-3.14-1.47-8.14-3.28-14.61-3.53-3.36-.13-6.34.19-8.77.64-.34.27-1.44,1.09-2.98,1.14-.95.03-1.66-.24-2.04-.42-.54-.3-1.23-.75-1.9-1.42-.78-.78-1.26-1.57-1.56-2.16-.88.28-2,.56-3.31.69-1.56.16-2.89.05-3.87-.1-1.09,3.12-1.98,6.95-1.96,11.26,0,.77.03,1.51.09,2.23,1.02-.08,2.19-.1,3.47,0,1.84.14,3.4.48,4.64.85.04-.12.75-2.27,2.94-2.97,1.74-.55,3.11.23,3.32.36.81.73,1.71,1.66,2.58,2.82,1.06,1.41,1.79,2.78,2.3,3.92.08.99.08,2.29-.18,3.81-.24,1.42-.65,2.62-1.03,3.53-.15.32-.54,1.03-1.36,1.57-.52.34-1.01.49-1.33.56-2.45,15.13-4.9,30.27-7.35,45.4-.02.21-.09,1.22.65,2.01.48.51,1.07.68,1.34.74,3.38.42,5.2.41,8.78.46.26,0,1.36-.13,2.3-1.03.82-.82.92-1.55,1.01-1.86Z"/>
  <g>
    <path class="cls-2" d="M91.82,127.6c-.21.99-.78,1.48-1.7,1.48h-16.91c-.92,0-1.27-.56-1.03-1.67.68-3.22,1.83-8.04,3.43-14.47,1.61-6.43,2.75-11.26,3.43-14.47.2-.92.16-1.42-.12-1.48-.39.19-3.57,5.11-9.54,14.76-3.5,5.67-6.99,11.32-10.48,16.96-.47.73-.96,1.16-1.47,1.29-.17.03-.81.05-1.92.05-1.66,0-2.58-.32-2.76-.96-.98-3.5-2.15-8.6-3.53-15.28-1.49-7.07-2.65-12.18-3.48-15.33-.03-.16-.14-.33-.32-.53-.28.29-.49.75-.63,1.38-.66,3.12-1.58,7.8-2.75,14.04-1.17,6.24-2.08,10.92-2.75,14.04-.24,1.11-.8,1.67-1.69,1.67h-15.95c-.64,0-1.01-.1-1.1-.31-.1-.21-.1-.56.01-1.07.74-3.47,2.01-8.68,3.83-15.64,1.81-6.96,3.09-12.17,3.83-15.64.78-3.69,2.1-10.62,3.94-20.78.53-2.64,1.22-6.57,2.08-11.8l.12-.81c.1-.64.84-.96,2.21-.96,1.75,0,4.39-.06,7.92-.17,3.53-.11,6.16-.17,7.92-.17.35,0,.7.67,1.05,2.01l7.44,30.62c.55,2.07,1.16,3.1,1.82,3.1.35,0,1.35-1.19,3.01-3.58,4.64-6.69,11.54-16.76,20.71-30.23.81-1.24,1.53-1.86,2.16-1.86.92,0,2.31.05,4.15.14,1.84.1,3.24.14,4.2.14.79,0,2.03-.08,3.7-.24,1.67-.16,2.91-.24,3.7-.24.96,0,1.35.38,1.19,1.15-.8,3.76-2.13,9.37-3.98,16.84-1.86,7.47-3.19,13.08-3.99,16.84-.74,3.47-1.7,8.68-2.89,15.62-1.19,6.94-2.15,12.13-2.88,15.57Z"/>
    <path class="cls-2" d="M164.8,127.6c-.14.67-.37,1.08-.69,1.24-.15.1-.61.18-1.39.24-1.98.19-4.74.29-8.28.29-5,0-7.92-.1-8.75-.29-.84-.19-1.18-.62-1.04-1.29.54-2.52,1.46-6.3,2.77-11.34,1.31-5.05,2.24-8.83,2.77-11.34.26-1.24.07-1.96-.59-2.15-1.03-.25-4.85-.38-11.48-.38s-10.57.13-11.73.38c-.74.16-1.24.88-1.51,2.15-.53,2.48-1.24,6.2-2.13,11.15-.89,4.95-1.6,8.67-2.13,11.15-.2.96-.75,1.51-1.64,1.67-1.06.19-4.07.29-9.04.29-4.3,0-7.02-.1-8.15-.29-.89-.16-1.25-.65-1.07-1.48.73-3.44,2-8.63,3.81-15.57,1.81-6.94,3.08-12.15,3.82-15.62.79-3.69,1.8-9.24,3.06-16.65s2.28-12.95,3.06-16.64c.15-.7.56-1.05,1.23-1.05.99,0,2.46.05,4.43.14,1.97.1,3.45.14,4.44.14s2.57-.05,4.64-.14c2.07-.1,3.62-.14,4.64-.14.54,0,.75.29.63.86-.51,2.39-1.44,5.96-2.8,10.72-1.36,4.76-2.3,8.33-2.8,10.72-.24,1.11-.07,1.77.49,1.96.77.25,4.82.38,12.15.38,6.81,0,10.79-.13,11.93-.38.8-.19,1.33-.84,1.56-1.96.49-2.29,1.11-5.75,1.87-10.39.76-4.63,1.39-8.11,1.88-10.44.21-.99.71-1.48,1.51-1.48.92,0,2.32.05,4.2.14,1.88.1,3.29.14,4.25.14s2.34-.05,4.26-.14,3.35-.14,4.31-.14,1.3.38,1.14,1.15c-.78,3.66-2.1,9.19-3.98,16.57-1.87,7.39-3.2,12.93-3.99,16.62-.74,3.47-1.68,8.68-2.82,15.62-1.14,6.94-2.08,12.13-2.81,15.57Z"/>
  </g>
</svg>